<svg xmlns="http://www.w3.org/2000/svg"  width="180" height="180" fill="none"
viewBox="0 0 180 180">

  <style>
    :root {
      --primary-fill: #fff;
      --secondary-fill: #000;
    }
    @media (prefers-color-scheme: dark) {
      :root {
        --primary-fill: #000;
        --secondary-fill: #fff;
      }
    }
  </style>

<circle fill="var(--secondary-fill)" cx="90" cy="90" r="90"/>

<path fill="var(--primary-fill)" d="M93.59 93.94c-3.16 4.79-8.59 6.75-13.78 4.61L38.69 72.91c-2.35-1.47-3.64-4.22-3.66-6.7s1.04-5.47 3.36-6.97l39.79-25.7c6.12-4.72 14.08-5.41 21.05-2.05l23.23 14.33c-6.66 6.91-14.84 11.78-23.81 15.65 2.69 11.02.97 22.65-5.07 32.47ZM39.72 122.15c-3.08-1.97-5.11-4.75-4.65-8.41.4-3.22 2.82-5.82 5.72-6.96L80.7 132.2c6.19 3.94 13.67 2.41 19.42-1.41l38.86-25.81c3.06 1.2 5.33 3.57 5.89 6.56.6 3.19-.81 6.54-3.66 8.43l-42.4 28.02c-5.56 3.67-13.51 3.37-19.03-.16l-40.05-25.67Z" /><path fill="var(--primary-fill)"  d="M38.63 97.11c-2.91-1.85-4.13-5.4-3.39-8.44s2.94-4.96 5.5-6.13L79 106.89c6.89 4.39 14.55 3.79 21.23-.65l38.83-25.8c3.03 1.44 5.24 3.6 5.79 6.53s-.53 6.41-3.23 8.19l-43.15 28.46c-5.29 3.49-13.18 3.23-18.41-.1L38.62 97.1Z" /><path fill="var(--primary-fill)"  d="M122.5 69.2c-7.6 8.25-15.4 15.75-23.62 23.42 4.3-9.31 5.84-19.17 4.11-28.98 11.96-5.25 21.96-13.03 29.39-23.98 1.94 5.49 1.06 11.13-1.02 16.35-2.14 4.94-5.07 9.09-8.86 13.2Z" />
</svg>